<svg xmlns="http://www.w3.org/2000/svg" xmlns:svg="http://www.w3.org/2000/svg" id="svg375" width="197.535" height="139.016" fill="none" stroke="none" stroke-linecap="square" stroke-miterlimit="10" version="1.1" viewBox="0 0 197.535 139.016"><clipPath id="p.0"><path id="path2" d="M 0,0 H 1078.2021 V 1305.6431 H 0 Z" clip-rule="nonzero"/></clipPath><path id="path5" fill="#000" fill-opacity="0" fill-rule="evenodd" d="M -11.57772,-8.8782 H 1066.6244 V 1296.7649 H -11.57772 Z"/><path id="path197" fill="#000" fill-opacity="0" fill-rule="evenodd" d="m 797.06535,941.9722 h 94.67712 v 42.01575 h -94.67712 z"/><path id="path201" fill="#000" fill-opacity="0" fill-rule="evenodd" d="m 599.25694,744.66513 h 338.99213 v 42.01575 H 599.25694 Z"/><g id="g799" transform="translate(-157.521,-1094.3635)"><path id="path225" fill="#00f" fill-rule="evenodd" d="m 230.021,1201.3674 h 42.03149 v 31.5118 H 230.021 Z"/><path id="path227" fill="#0000cb" fill-rule="evenodd" d="m 272.0525,1201.3674 10.50394,-10.5039 v 31.5118 l -10.50394,10.5039 z"/><path id="path229" fill="#33f" fill-rule="evenodd" d="m 230.021,1201.3674 10.50394,-10.5039 h 42.03149 l -10.50394,10.5039 z"/><path id="path231" fill="#000" fill-opacity="0" fill-rule="evenodd" d="m 230.021,1201.3674 10.50394,-10.5039 h 42.03149 v 31.5118 l -10.50394,10.5039 H 230.021 Z m 0,0 h 42.03149 l 10.50394,-10.5039 m -10.50394,10.5039 v 31.5118"/><path id="path233" fill-rule="evenodd" stroke="#000" stroke-linecap="butt" stroke-linejoin="round" stroke-width="1" d="m 230.021,1201.3674 10.50394,-10.5039 h 42.03149 v 31.5118 l -10.50394,10.5039 H 230.021 Z m 0,0 h 42.03149 l 10.50394,-10.5039 m -10.50394,10.5039 v 31.5118"/><path id="path235" fill="#0b5394" fill-rule="evenodd" d="m 206.021,1169.3674 h 42.03149 v 31.5118 H 206.021 Z"/><path id="path237" fill="#084276" fill-rule="evenodd" d="m 248.05249,1169.3674 10.50394,-10.5039 v 31.5118 l -10.50394,10.5039 z"/><path id="path239" fill="#3b75a9" fill-rule="evenodd" d="m 206.021,1169.3674 10.50394,-10.5039 h 42.03149 l -10.50394,10.5039 z"/><path id="path241" fill="#000" fill-opacity="0" fill-rule="evenodd" d="m 206.021,1169.3674 10.50394,-10.5039 h 42.03149 v 31.5118 l -10.50394,10.5039 H 206.021 Z m 0,0 h 42.03149 l 10.50394,-10.5039 m -10.50394,10.5039 v 31.5118"/><path id="path243" fill-rule="evenodd" stroke="#000" stroke-linecap="butt" stroke-linejoin="round" stroke-width="1" d="m 206.021,1169.3674 10.50394,-10.5039 h 42.03149 v 31.5118 l -10.50394,10.5039 H 206.021 Z m 0,0 h 42.03149 l 10.50394,-10.5039 m -10.50394,10.5039 v 31.5118"/><path id="path245" fill="#15c" fill-rule="evenodd" d="m 254.021,1169.3674 h 42.03149 v 31.5118 H 254.021 Z"/><path id="path247" fill="#0d43a3" fill-rule="evenodd" d="m 296.0525,1169.3674 10.50394,-10.5039 v 31.5118 l -10.50394,10.5039 z"/><path id="path249" fill="#4077d6" fill-rule="evenodd" d="m 254.021,1169.3674 10.50394,-10.5039 h 42.03149 l -10.50394,10.5039 z"/><path id="path251" fill="#000" fill-opacity="0" fill-rule="evenodd" d="m 254.021,1169.3674 10.50394,-10.5039 h 42.03149 v 31.5118 l -10.50394,10.5039 H 254.021 Z m 0,0 h 42.03149 l 10.50394,-10.5039 m -10.50394,10.5039 v 31.5118"/><path id="path253" fill-rule="evenodd" stroke="#000" stroke-linecap="butt" stroke-linejoin="round" stroke-width="1" d="m 254.021,1169.3674 10.50394,-10.5039 h 42.03149 v 31.5118 l -10.50394,10.5039 H 254.021 Z m 0,0 h 42.03149 l 10.50394,-10.5039 m -10.50394,10.5039 v 31.5118"/><path id="path255" fill="#3d85c6" fill-rule="evenodd" d="m 182.021,1137.3674 h 42.03149 v 31.5118 H 182.021 Z"/><path id="path257" fill="#306a9e" fill-rule="evenodd" d="m 224.05249,1137.3674 10.50394,-10.5039 v 31.5118 l -10.50394,10.5039 z"/><path id="path259" fill="#639dd1" fill-rule="evenodd" d="m 182.021,1137.3674 10.50394,-10.5039 h 42.03149 l -10.50394,10.5039 z"/><path id="path261" fill="#000" fill-opacity="0" fill-rule="evenodd" d="m 182.021,1137.3674 10.50394,-10.5039 h 42.03149 v 31.5118 l -10.50394,10.5039 H 182.021 Z m 0,0 h 42.03149 l 10.50394,-10.5039 m -10.50394,10.5039 v 31.5118"/><path id="path263" fill-rule="evenodd" stroke="#000" stroke-linecap="butt" stroke-linejoin="round" stroke-width="1" d="m 182.021,1137.3674 10.50394,-10.5039 h 42.03149 v 31.5118 l -10.50394,10.5039 H 182.021 Z m 0,0 h 42.03149 l 10.50394,-10.5039 m -10.50394,10.5039 v 31.5118"/><path id="path265" fill="#3c78d8" fill-rule="evenodd" d="m 278.021,1137.3674 h 42.03149 v 31.5118 H 278.021 Z"/><path id="path267" fill="#2f5fac" fill-rule="evenodd" d="m 320.0525,1137.3674 10.50394,-10.5039 v 31.5118 l -10.50394,10.5039 z"/><path id="path269" fill="#6393df" fill-rule="evenodd" d="m 278.021,1137.3674 10.50394,-10.5039 h 42.03149 l -10.50394,10.5039 z"/><path id="path271" fill="#000" fill-opacity="0" fill-rule="evenodd" d="m 278.021,1137.3674 10.50394,-10.5039 h 42.03149 v 31.5118 l -10.50394,10.5039 H 278.021 Z m 0,0 h 42.03149 l 10.50394,-10.5039 m -10.50394,10.5039 v 31.5118"/><path id="path273" fill-rule="evenodd" stroke="#000" stroke-linecap="butt" stroke-linejoin="round" stroke-width="1" d="m 278.021,1137.3674 10.50394,-10.5039 h 42.03149 v 31.5118 l -10.50394,10.5039 H 278.021 Z m 0,0 h 42.03149 l 10.50394,-10.5039 m -10.50394,10.5039 v 31.5118"/><path id="path275" fill="#6fa8dc" fill-rule="evenodd" d="m 158.021,1105.3674 h 42.03149 v 31.5118 H 158.021 Z"/><path id="path277" fill="#5886af" fill-rule="evenodd" d="m 200.05249,1105.3674 10.50394,-10.5039 v 31.5118 l -10.50394,10.5039 z"/><path id="path279" fill="#8bb9e3" fill-rule="evenodd" d="m 158.021,1105.3674 10.50394,-10.5039 h 42.03149 l -10.50394,10.5039 z"/><path id="path281" fill="#000" fill-opacity="0" fill-rule="evenodd" d="m 158.021,1105.3674 10.50394,-10.5039 h 42.03149 v 31.5118 l -10.50394,10.5039 H 158.021 Z m 0,0 h 42.03149 l 10.50394,-10.5039 m -10.50394,10.5039 v 31.5118"/><path id="path283" fill-rule="evenodd" stroke="#000" stroke-linecap="butt" stroke-linejoin="round" stroke-width="1" d="m 158.021,1105.3674 10.50394,-10.5039 h 42.03149 v 31.5118 l -10.50394,10.5039 H 158.021 Z m 0,0 h 42.03149 l 10.50394,-10.5039 m -10.50394,10.5039 v 31.5118"/><path id="path285" fill="#6d9eeb" fill-rule="evenodd" d="m 302.021,1105.3674 h 42.03149 v 31.5118 H 302.021 Z"/><path id="path287" fill="#577ebb" fill-rule="evenodd" d="m 344.0525,1105.3674 10.50394,-10.5039 v 31.5118 l -10.50394,10.5039 z"/><path id="path289" fill="#8ab1ef" fill-rule="evenodd" d="m 302.021,1105.3674 10.50394,-10.5039 h 42.03149 l -10.50394,10.5039 z"/><path id="path291" fill="#000" fill-opacity="0" fill-rule="evenodd" d="m 302.021,1105.3674 10.50394,-10.5039 h 42.03149 v 31.5118 l -10.50394,10.5039 H 302.021 Z m 0,0 h 42.03149 l 10.50394,-10.5039 m -10.50394,10.5039 v 31.5118"/><path id="path293" fill-rule="evenodd" stroke="#000" stroke-linecap="butt" stroke-linejoin="round" stroke-width="1" d="m 302.021,1105.3674 10.50394,-10.5039 h 42.03149 v 31.5118 l -10.50394,10.5039 H 302.021 Z m 0,0 h 42.03149 l 10.50394,-10.5039 m -10.50394,10.5039 v 31.5118"/></g><path id="path295" fill="#000" fill-opacity="0" fill-rule="evenodd" d="m 312.01808,1213.4735 h 94.67718 v 42.0157 h -94.67718 z"/></svg>